_states
version=1
nRows=21
nColumns=11
inDegrees=yes

# SIMM Motion File Header:
name _states
datacolumns 11
datarows 21
otherdata 1
range 2.63232066 2.65926734
endheader
time	/jointset/boatJoint/bJoint_3/value	/jointset/boatJoint/bJoint_3/speed	/jointset/boatJoint/bJoint_4/value	/jointset/boatJoint/bJoint_4/speed	/jointset/baseJoint/baseangle/value	/jointset/baseJoint/baseangle/speed	/jointset/lowerJoint/kneeangle/value	/jointset/lowerJoint/kneeangle/speed	/jointset/bladeJoint/bladeangle/value	/jointset/bladeJoint/bladeangle/speed
      2.63232066	      1.81847711	     -1.45444563	      1.34163370	      5.17384865	  -1819.64388922	  -3792.60611100	   2011.35005824	   4078.52603459	   -200.40323970	   -307.80777275
      2.63386846	      1.81630799	     -1.34055399	      1.34984793	      5.44565503	  -1825.62766720	  -3946.05010092	   2017.54568231	   3929.28734061	   -200.64896411	     -5.12580434
      2.63480053	      1.81510066	     -1.24644604	      1.35500671	      5.62612781	  -1829.35662668	  -4057.86387759	   2021.16838427	   3844.75280891	   -200.56310884	    191.22100378
      2.63573259	      1.81399193	     -1.12822070	      1.36034010	      5.82043692	  -1833.19658485	  -4184.19280132	   2024.71374756	   3763.21234846	   -200.28891799	    399.08808384
      2.63692680	      1.81275549	     -0.93365304	      1.36744963	      6.09019165	  -1838.30005149	  -4366.63791424	   2029.14705855	   3662.04975741	   -199.64490858	    682.69166092
      2.63812100	      1.81178562	     -0.67966666	      1.37489484	      6.38219790	  -1843.63443526	  -4570.51577294	   2033.46128845	   3563.63975321	   -198.65090667	    984.97407733
      2.63931520	      1.81116101	     -0.35320255	      1.38270016	      6.69227798	  -1849.22354847	  -4792.55416228	   2037.65932086	   3467.39471680	   -197.28598511	   1303.25073699
      2.64079552	      1.81100907	      0.17177478	      1.39289993	      7.08868321	  -1856.53292933	  -5085.14835592	   2042.70567606	   3351.15819920	   -195.05539867	   1712.07152010
      2.64202482	      1.81154777	      0.72298576	      1.40181331	      7.40978996	  -1862.93687814	  -5333.61510826	   2046.76771844	   3258.22821088	   -192.74044181	   2053.46024268
      2.64325412	      1.81283277	      1.38653542	      1.41110533	      7.70063099	  -1869.64373658	  -5576.08679232	   2050.71847614	   3170.48861856	   -190.01130028	   2383.66385407
      2.64448343	      1.81500250	      2.16140646	      1.42072294	      7.93486748	  -1876.63897356	  -5800.76758042	   2054.56591820	   3090.65554117	   -186.89047379	   2688.17040766
      2.64571273	      1.81818798	      3.03628703	      1.43057927	      8.08439799	  -1883.89327422	  -5995.61180034	   2058.32178497	   3022.09686649	   -183.41901708	   2951.56634343
      2.64694203	      1.82249954	      3.98888772	      1.44055385	      8.12338037	  -1891.36302552	  -6149.61178507	   2062.00216073	   2968.43156697	   -179.65662706	   3159.22502196
      2.64843362	      1.82935035	      5.20267110	      1.45260018	      7.99529721	  -1900.63471679	  -6269.11212070	   2066.39610228	   2928.05081536	   -174.81163130	   3319.09856812
      2.64992522	      1.83801932	      6.41477595	      1.46430321	      7.66291883	  -1910.02356619	  -6305.61467305	   2070.75255482	   2918.64110210	   -169.81199925	   3365.00381251
      2.65141681	      1.84845054	      7.55425871	      1.47536436	      7.13898452	  -1919.40270299	  -6256.21270604	   2075.11906719	   2941.47775268	   -164.83214972	   3292.75869351
      2.65290841	      1.86048820	      8.55999807	      1.48552336	      6.46135207	  -1928.64636481	  -6125.29773204	   2079.54265032	   2994.58143388	   -160.04485524	   3108.73405676
      2.65440000	      1.87389897	      9.39046896	      1.49459093	      5.68570585	  -1937.64066321	  -5924.30235958	   2084.06522007	   3073.25643256	   -155.60591934	   2829.05822389
      2.65589160	      1.88840578	     10.02892397	      1.50246716	      4.87411989	  -1946.29340295	  -5670.59563203	   2088.72039703	   3171.31402606	   -151.64115707	   2477.28896094
      2.65770318	      1.90709131	     10.55786392	      1.51042213	      3.92002526	  -1956.25436900	  -5321.81642256	   2094.58672598	   3307.59353653	   -147.58636631	   1992.22493801
      2.65926734	      1.92383821	     10.83051103	      1.51595912	      3.17467445	  -1964.33561482	  -5011.89910962	   2099.85854678	   3434.19627260	   -144.81135271	   1555.70092714
